<?xml version="1.0" standalone="no"?>
<!DOCTYPE svg PUBLIC "-//W3C//DTD SVG 20010904//EN"
 "http://www.w3.org/TR/2001/REC-SVG-20010904/DTD/svg10.dtd">
<svg version="1.0" xmlns="http://www.w3.org/2000/svg"
 width="900.000000pt" height="600.000000pt" viewBox="0 0 900.000000 600.000000"
 preserveAspectRatio="xMidYMid meet">

<g transform="translate(0.000000,600.000000) scale(0.100000,-0.100000)"
fill="#000000" stroke="none">
<path d="M4725 5640 c5 -9 4 -11 -3 -6 -35 21 -160 -98 -219 -210 -49 -94
-147 -378 -173 -501 -10 -49 -32 -142 -49 -208 -43 -169 -55 -304 -57 -674 -2
-178 -6 -327 -11 -332 -4 -4 -28 1 -52 11 -24 11 -57 20 -75 20 l-31 -1 37
-20 c21 -10 41 -27 46 -37 16 -29 23 -197 10 -210 -9 -9 -9 -12 0 -12 8 0 12
-19 12 -55 0 -53 -33 -145 -66 -185 -9 -11 -10 -37 -3 -105 5 -49 7 -124 3
-165 -3 -41 -7 -165 -9 -275 -2 -153 -6 -211 -19 -248 -9 -26 -16 -56 -16 -67
0 -10 -4 -21 -9 -24 -4 -3 -11 -23 -15 -45 -6 -43 -21 -54 -76 -56 -19 -1 -52
-6 -72 -10 -33 -7 -38 -5 -38 10 0 15 -3 14 -24 -6 -13 -13 -26 -34 -30 -46
-4 -13 -11 -23 -16 -23 -5 0 -4 -15 1 -32 5 -18 9 -46 9 -61 0 -26 25 -84 41
-97 4 -3 9 -14 12 -25 2 -11 3 -4 2 16 -2 31 0 36 16 32 13 -4 21 2 28 20 10
26 26 40 50 43 16 3 51 39 51 54 0 5 4 10 9 10 5 0 23 12 40 26 17 14 35 23
41 19 5 -3 10 -1 10 4 0 6 13 11 29 11 17 0 33 5 36 10 4 6 13 7 24 1 18 -10
58 1 216 56 39 13 77 26 85 27 25 4 101 46 176 97 39 27 76 49 81 49 6 0 16 7
23 15 7 9 19 14 26 11 8 -3 13 -1 11 4 -1 6 34 26 78 45 44 19 92 44 107 55
15 11 34 20 41 20 8 0 20 7 27 15 7 8 16 13 20 10 13 -8 56 49 95 128 21 42
42 77 47 77 5 0 6 5 3 10 -3 6 -1 10 4 10 6 0 11 5 11 11 0 5 -6 7 -12 3 -8
-5 -7 0 2 11 8 10 19 32 25 49 13 41 44 54 171 73 105 15 106 15 208 -11 l103
-25 39 19 c21 11 50 20 64 19 28 0 24 -2 -47 -29 l-33 -12 34 -18 c42 -21 84
-16 140 17 27 16 33 22 16 18 -23 -6 -23 -5 5 13 21 13 34 16 43 9 9 -7 12 -4
12 9 -1 29 -35 99 -74 150 -42 55 -43 62 -15 98 36 46 85 33 180 -49 30 -25
84 -67 121 -92 79 -54 70 -56 213 36 50 32 112 70 138 85 45 26 47 29 30 42
-10 7 -25 14 -33 14 -8 0 -37 12 -65 25 -27 14 -58 25 -67 25 -9 0 -30 5 -45
12 -51 22 -218 120 -241 141 -25 24 -52 72 -52 95 0 17 -66 82 -83 82 -6 0
-18 7 -27 15 -10 9 -31 20 -48 25 -36 10 -72 -12 -96 -58 -18 -35 -50 -161
-48 -189 1 -13 -2 -23 -6 -23 -11 0 -35 127 -27 140 16 25 -57 209 -79 201 -5
-1 -20 18 -34 44 -13 26 -26 45 -28 42 -3 -2 5 -23 17 -46 12 -23 20 -44 18
-46 -3 -2 -20 28 -39 67 -19 39 -36 63 -38 55 -2 -9 15 -46 37 -82 35 -59 141
-352 141 -391 0 -7 6 -11 14 -8 10 4 13 -7 13 -48 -1 -42 5 -61 26 -92 33 -47
50 -101 45 -141 -3 -27 -7 -30 -40 -33 -30 -3 -37 0 -32 12 4 11 0 13 -15 9
-12 -3 -28 1 -37 8 -9 7 -25 15 -37 16 -12 2 -24 9 -28 15 -4 6 -18 8 -32 4
-14 -3 -28 -2 -32 4 -3 5 -13 7 -23 4 -15 -5 -15 -5 1 6 9 6 21 9 26 5 5 -3
12 -1 16 5 11 18 -22 22 -52 7 -28 -15 -110 -34 -188 -45 -49 -7 -172 -7 -285
1 l-85 5 75 -14 c41 -7 96 -16 121 -19 37 -5 49 -11 60 -33 8 -15 18 -30 23
-34 13 -9 -11 -61 -23 -53 -16 9 -25 -16 -10 -27 10 -7 7 -7 -8 -3 -17 5 -23
2 -23 -9 0 -10 -9 -16 -25 -16 -14 0 -25 -4 -25 -8 0 -4 -18 -13 -39 -18 -40
-11 -40 -11 -103 47 -34 31 -66 56 -69 53 -4 -2 -14 3 -22 11 -9 9 -23 12 -33
8 -13 -5 -15 -3 -9 8 6 11 5 12 -5 2 -11 -11 -10 -17 8 -36 12 -13 22 -27 22
-33 0 -5 -20 12 -44 39 -49 53 -66 59 -59 22 3 -13 10 -23 15 -22 6 1 26 -22
45 -52 20 -29 30 -50 24 -47 -6 4 -18 21 -27 38 -12 22 -18 27 -24 18 -10 -15
-90 137 -90 170 0 24 -27 80 -38 80 -4 0 -8 9 -9 19 -1 11 -15 51 -32 89 -32
73 -40 119 -19 106 8 -5 9 -2 3 12 -4 10 -13 42 -19 69 -6 28 -14 55 -18 61
-7 11 5 201 14 209 3 3 19 0 36 -6 22 -8 29 -15 25 -27 -5 -12 0 -11 23 6 69
52 75 61 80 130 5 74 12 85 46 78 35 -7 94 17 108 44 10 19 -9 40 -100 106
-30 22 -72 53 -92 68 -37 26 -43 24 -39 -11 3 -20 -19 -15 -26 5 -4 9 -17 28
-31 42 -37 38 -53 76 -83 190 -17 65 -28 93 -28 74 -1 -42 -28 -53 -41 -18 -6
14 -10 34 -10 44 0 11 -12 31 -26 45 -32 32 -30 78 4 83 25 4 28 17 8 37 -12
12 -15 11 -20 -10 -12 -49 -32 -27 -50 55 -19 91 -14 145 16 161 17 9 28 2 83
-57 56 -60 65 -66 80 -54 9 7 14 19 11 27 -7 16 6 17 22 1 9 -9 12 -9 12 3 0
8 9 22 20 32 11 9 20 28 20 42 0 25 23 35 35 15 12 -19 26 -10 20 11 -5 14 -3
19 3 15 12 -7 38 32 34 50 -3 14 59 77 121 123 25 19 44 38 41 43 -3 4 18 4
45 1 35 -4 57 -1 73 9 13 8 50 20 83 27 58 13 122 34 158 52 9 5 17 5 17 1 0
-5 6 -9 13 -9 6 -1 38 -4 70 -8 l58 -8 -17 36 c-16 33 -43 48 -99 52 -5 0 -16
4 -22 8 -8 5 -13 3 -14 -5 -2 -17 -16 40 -17 67 -1 17 1 17 13 -5 11 -19 14
-21 15 -7 0 9 4 17 9 17 44 0 -133 198 -207 230 -54 24 -56 24 -48 3 6 -17 5
-17 -8 0 -7 9 -16 17 -19 17 -13 0 -15 -32 -2 -57 8 -15 15 -38 15 -50 0 -12
5 -34 10 -49 6 -15 8 -29 6 -31 -3 -3 -12 20 -21 51 -9 31 -26 67 -38 79 -28
28 -57 31 -57 6 0 -24 -9 -24 -27 -1 -12 15 -13 14 -7 -13 6 -29 6 -29 -9 -10
-15 19 -16 19 -36 1 -12 -11 -19 -26 -16 -35 2 -9 1 -29 -4 -46 -9 -28 -9 -27
-10 17 -1 26 -5 50 -11 53 -5 3 -10 1 -10 -4 0 -6 -5 -10 -11 -8 -13 2 -31
-47 -30 -81 1 -14 -3 -21 -10 -16 -6 3 -9 21 -7 40 5 39 -2 36 -19 -9 -6 -18
-12 -24 -12 -14 -2 29 -18 19 -25 -15 -3 -17 -9 -28 -12 -25 -4 3 -1 20 5 38
6 18 11 41 11 53 -1 20 -2 20 -14 3 -16 -20 -102 -68 -109 -60 -10 10 14 58
41 81 37 31 77 48 142 62 30 6 66 16 80 21 14 5 43 10 65 12 25 3 40 9 40 18
0 12 -30 22 -107 33 -123 19 -131 19 -123 6z m426 -132 c17 -32 5 -30 -19 2
-16 21 -18 28 -7 24 9 -4 20 -15 26 -26z m-235 -85 l-15 -28 -1 28 c0 16 4 26
10 22 6 -3 10 -1 10 6 0 7 3 10 6 7 3 -4 -1 -19 -10 -35z m209 -25 c10 -38 12
-62 6 -83 l-10 -30 1 30 c0 33 -5 56 -20 96 -9 23 -7 39 4 39 2 0 10 -24 19
-52z m130 -29 c9 -27 15 -55 12 -62 -2 -6 -9 4 -15 23 -10 34 -10 34 -11 7 -1
-37 -18 -26 -19 13 0 17 4 28 9 25 14 -9 10 7 -6 29 -19 25 -19 42 -1 26 8 -6
22 -34 31 -61z m-704 -12 c-8 -8 -11 -3 -11 19 1 25 2 27 11 11 8 -14 8 -22 0
-30z m406 -4 c-3 -10 -5 -4 -5 12 0 17 2 24 5 18 2 -7 2 -21 0 -30z m230 -35
c-3 -8 -6 -5 -6 6 -1 11 2 17 5 13 3 -3 4 -12 1 -19z m-220 -10 c-3 -8 -6 -5
-6 6 -1 11 2 17 5 13 3 -3 4 -12 1 -19z m253 -11 c0 -5 -4 -5 -10 -2 -5 3 -10
14 -10 23 0 15 2 15 10 2 5 -8 10 -19 10 -23z m-432 -134 c-10 -2 -26 -2 -35
0 -10 3 -2 5 17 5 19 0 27 -2 18 -5z m-214 -1743 c-18 -60 -15 -166 4 -162 9
1 11 -15 10 -60 l-2 -63 -3 53 c-4 45 -6 52 -19 42 -10 -9 -14 -34 -14 -88 0
-41 -2 -73 -5 -70 -3 3 -9 41 -13 85 -6 60 -5 83 5 92 15 14 18 75 3 66 -5 -3
-10 -14 -10 -24 0 -9 -7 -26 -16 -37 -13 -16 -15 -16 -10 -2 3 10 8 40 12 68
4 28 11 53 15 56 5 3 6 10 3 16 -4 6 -2 8 3 5 6 -4 18 10 27 33 22 56 28 50
10 -10z m-363 -70 c5 0 9 -9 9 -20 0 -11 6 -23 14 -26 14 -5 30 -40 27 -58 -4
-21 12 -68 19 -57 5 8 12 4 23 -13 21 -32 22 -42 2 -26 -9 7 -18 10 -21 7 -3
-3 13 -17 35 -31 23 -15 41 -29 41 -31 0 -16 -43 -129 -59 -155 -22 -37 -23
-37 -56 99 -12 51 -28 97 -35 101 -7 4 -9 16 -6 28 4 11 3 23 -2 26 -5 3 -5
31 0 67 7 42 6 65 -1 72 -6 6 -10 20 -10 32 1 16 2 17 6 3 2 -10 9 -18 14 -18z
m366 -32 c-2 -13 -4 -5 -4 17 -1 22 1 32 4 23 2 -10 2 -28 0 -40z m60 -80 c-3
-8 -6 -5 -6 6 -1 11 2 17 5 13 3 -3 4 -12 1 -19z m-140 -40 c-3 -8 -6 -5 -6 6
-1 11 2 17 5 13 3 -3 4 -12 1 -19z m70 -75 c-2 -21 -4 -6 -4 32 0 39 2 55 4
38 2 -18 2 -50 0 -70z m84 -32 c-8 -55 -9 -55 -9 29 0 63 2 77 8 56 5 -16 5
-54 1 -85z m67 54 c6 -14 8 -25 4 -25 -12 0 -32 23 -32 37 0 22 16 15 28 -12z
m-28 -24 c0 -6 -4 -13 -10 -16 -5 -3 -10 1 -10 9 0 9 5 16 10 16 6 0 10 -4 10
-9z m4 -81 c6 -39 5 -43 -7 -28 -8 10 -12 31 -9 48 6 40 9 36 16 -20z m220
-277 c41 -45 80 -93 87 -105 6 -13 7 -18 2 -13 -5 6 -40 42 -76 82 -67 72 -85
78 -47 15 29 -47 0 -28 -43 28 -43 57 -89 130 -82 130 3 0 -6 17 -19 37 -14
20 -23 39 -21 42 6 5 3 9 44 -57 19 -29 35 -51 37 -49 2 2 -10 36 -26 76 -17
40 -30 76 -30 80 1 3 23 -37 50 -89 33 -64 74 -122 124 -177z m4 92 c-3 -3 -9
2 -12 12 -6 14 -5 15 5 6 7 -7 10 -15 7 -18z m182 1 c0 -3 -4 -8 -10 -11 -5
-3 -10 -1 -10 4 0 6 5 11 10 11 6 0 10 -2 10 -4z m-805 -568 c8 -15 12 -29 7
-31 -4 -3 -33 -8 -66 -12 -54 -7 -58 -6 -52 11 5 18 26 119 26 133 1 10 69
-71 85 -101z"/>
<path d="M4810 2839 c7 -11 14 -19 16 -16 7 7 -7 37 -17 37 -6 0 -5 -9 1 -21z"/>
<path d="M4970 5580 c0 -5 5 -10 11 -10 5 0 7 5 4 10 -3 6 -8 10 -11 10 -2 0
-4 -4 -4 -10z"/>
<path d="M5210 5526 c0 -3 14 -12 30 -21 17 -9 30 -13 30 -11 0 3 -13 12 -30
21 -16 9 -30 13 -30 11z"/>
<path d="M5265 5460 c5 -8 21 -28 36 -45 15 -16 41 -46 58 -65 22 -26 30 -30
31 -18 0 10 -19 37 -43 60 -58 58 -92 87 -82 68z"/>
<path d="M5370 5406 c0 -4 11 -21 25 -38 14 -16 25 -26 25 -21 0 11 -49 70
-50 59z"/>
<path d="M5535 5120 c-3 -5 -2 -10 2 -10 5 0 9 -9 9 -19 0 -11 -5 -17 -10 -14
-5 4 -7 -1 -3 -11 4 -10 7 -21 7 -24 0 -4 5 0 10 8 8 13 10 12 10 -2 0 -10 4
-18 9 -18 12 0 6 52 -9 80 -12 23 -16 24 -25 10z"/>
<path d="M8876 5018 c-31 -44 -12 -63 32 -32 28 19 30 54 3 54 -11 0 -27 -10
-35 -22z"/>
<path d="M5537 4903 c-11 -10 -8 -102 3 -123 7 -13 6 -21 -5 -30 -9 -8 -15
-30 -15 -59 0 -38 5 -52 25 -71 14 -13 25 -32 25 -42 0 -10 7 -18 15 -18 15 0
22 22 23 75 1 17 22 72 47 122 49 101 54 123 28 123 -10 0 -31 7 -47 15 -29
15 -87 20 -99 8z"/>
<path d="M8880 4829 c-14 -10 -49 -25 -77 -31 -29 -7 -53 -16 -53 -20 0 -4 23
-19 50 -33 l50 -25 0 -74 c0 -68 -2 -75 -25 -90 -14 -9 -67 -24 -118 -32 -50
-9 -102 -22 -114 -30 -23 -14 -29 -40 -15 -59 10 -15 95 -45 188 -67 91 -21
99 -29 159 -143 29 -56 32 -70 24 -97 -5 -18 -9 -113 -8 -210 0 -154 -3 -182
-18 -209 -20 -33 -57 -48 -82 -32 -9 5 -21 25 -27 43 -6 18 -18 37 -27 42 -23
12 -21 21 8 64 29 43 31 79 9 155 -15 48 -64 119 -64 90 0 -6 -3 -10 -7 -9
-16 3 -88 -15 -94 -24 -10 -15 -93 -36 -114 -28 -11 4 -35 1 -55 -8 -24 -10
-53 -12 -93 -8 -47 5 -60 3 -75 -12 -10 -10 -17 -22 -15 -28 1 -5 -8 -17 -21
-26 -24 -17 -25 -17 -45 18 -12 19 -21 41 -21 49 0 8 -9 19 -20 25 -11 6 -20
15 -20 20 0 13 66 40 99 40 36 0 249 75 272 96 27 24 19 38 -21 40 -49 3 -71
35 -68 104 2 45 -2 62 -21 88 -28 39 -40 37 -64 -10 -15 -30 -16 -43 -6 -88 8
-38 8 -55 0 -63 -6 -6 -11 -19 -11 -29 0 -10 -6 -18 -12 -18 -81 -3 -222 -20
-230 -28 -26 -26 -2 -287 33 -354 23 -45 24 -62 3 -79 -12 -10 -14 -24 -9 -65
l6 -52 -43 -8 c-24 -4 -54 -6 -67 -5 -16 2 -22 -2 -19 -11 5 -13 204 -17 413
-8 50 3 140 4 200 3 61 -1 139 0 175 0 36 1 98 -2 138 -6 l72 -8 0 619 0 620
-25 16 c-32 21 -64 19 -95 -5z m-253 -1122 c16 -34 3 -47 -63 -64 -60 -15
-380 -31 -408 -20 -22 9 -11 30 24 45 22 10 42 11 87 3 78 -14 100 -10 268 47
53 18 81 14 92 -11z"/>
<path d="M8464 4782 c-30 -29 -39 -32 -79 -29 l-45 3 0 -83 c0 -75 -2 -84 -23
-98 -21 -14 -31 -13 -102 5 -79 20 -123 14 -66 -9 16 -7 32 -19 35 -26 8 -22
68 -49 105 -46 18 1 39 -3 46 -9 17 -14 55 3 55 25 0 16 31 77 45 87 6 4 19 8
31 8 30 0 74 23 74 39 0 19 49 101 60 101 14 0 31 37 24 54 -5 12 -20 15 -66
13 -53 -2 -64 -6 -94 -35z"/>
<path d="M5406 4745 c-21 -7 -46 -21 -55 -29 -14 -15 -13 -16 13 -16 35 0 128
39 120 51 -7 12 -32 11 -78 -6z"/>
<path d="M4923 4739 c-53 -13 -56 -29 -5 -29 46 0 140 -28 102 -30 l-25 -1 23
-12 c18 -8 25 -8 32 2 5 9 17 11 35 7 22 -6 25 -10 15 -21 -6 -8 -9 -18 -6
-24 3 -5 -1 -12 -10 -15 -28 -11 -69 -6 -127 14 -31 11 -66 20 -78 20 l-22 0
23 -25 c13 -14 29 -25 37 -25 7 0 13 -7 13 -15 0 -36 109 -58 176 -35 31 11
64 50 42 50 -6 0 -4 6 6 13 11 8 19 29 21 56 3 40 2 43 -31 57 -44 19 -168 26
-221 13z"/>
<path d="M4576 4695 c-9 -13 -25 -26 -36 -30 -29 -9 -4 -32 37 -33 34 -1 63
30 63 66 0 28 -45 26 -64 -3z"/>
<path d="M5327 4662 c-21 -23 -22 -56 -1 -76 19 -19 27 -20 73 -4 20 7 37 12
37 13 1 0 5 11 9 24 5 17 4 21 -5 16 -6 -4 -28 -4 -48 0 -20 4 -31 10 -24 12
19 7 14 33 -6 33 -11 0 -26 -8 -35 -18z"/>
<path d="M4968 4663 c7 -3 16 -2 19 1 4 3 -2 6 -13 5 -11 0 -14 -3 -6 -6z"/>
<path d="M4531 4593 c0 -5 4 -17 9 -28 8 -18 9 -17 9 8 1 15 -3 27 -9 27 -5 0
-10 -3 -9 -7z"/>
<path d="M7 4474 c-11 -11 -8 -133 3 -155 16 -29 38 -23 86 21 31 28 52 40 74
40 23 0 31 5 36 25 10 40 -2 55 -43 57 -46 1 -79 5 -118 13 -17 4 -33 3 -38
-1z"/>
<path d="M5375 4390 c-3 -6 -4 -19 0 -29 3 -12 0 -21 -10 -25 -18 -7 -20 -25
-2 -22 36 5 69 62 45 78 -17 10 -26 10 -33 -2z"/>
<path d="M5550 4371 c-8 -5 -31 -11 -51 -15 -36 -6 -57 -23 -77 -62 -12 -23
-12 -23 61 -24 59 -2 76 7 83 45 8 46 3 66 -16 56z"/>
<path d="M4950 4309 c0 -5 5 -7 10 -4 6 3 10 8 10 11 0 2 -4 4 -10 4 -5 0 -10
-5 -10 -11z"/>
<path d="M5218 4313 c6 -2 18 -2 25 0 6 3 1 5 -13 5 -14 0 -19 -2 -12 -5z"/>
<path d="M7370 4262 c-36 -21 -84 -47 -107 -58 -23 -10 -42 -21 -42 -24 0 -3
16 -22 35 -43 29 -31 41 -37 60 -33 14 4 37 0 54 -9 50 -26 119 -26 227 0 27
6 48 61 37 97 -6 20 -67 42 -96 35 -25 -7 -58 12 -58 33 0 18 -19 40 -34 40
-6 0 -40 -17 -76 -38z"/>
<path d="M4970 4276 c0 -8 19 -25 43 -39 23 -14 60 -42 82 -61 48 -44 71 -51
110 -35 26 11 27 13 10 17 -47 10 -55 42 -11 42 17 0 66 32 66 43 0 1 -48 3
-108 5 -84 3 -114 7 -140 23 -39 23 -52 24 -52 5z"/>
<path d="M8705 4265 c-36 -11 -38 -13 -20 -22 25 -14 115 6 115 24 0 15 -36
14 -95 -2z"/>
<path d="M0 3918 l0 -298 32 0 c18 0 41 -9 53 -20 19 -18 27 -19 85 -9 124 20
170 32 186 51 35 38 109 6 144 -62 12 -23 32 -45 46 -50 32 -13 124 -13 124
-1 0 5 -15 18 -33 30 -78 50 -123 90 -142 124 l-20 37 20 37 c27 49 60 59 144
43 168 -32 128 36 -46 76 -62 14 -68 14 -108 -5 -24 -11 -46 -25 -50 -31 -3
-5 -19 -10 -34 -10 -15 0 -51 -7 -79 -15 -46 -14 -55 -14 -81 0 -34 17 -37 25
-46 118 -6 56 -3 74 14 110 20 42 26 66 23 100 -2 14 -12 17 -61 17 -44 0 -72
7 -115 28 l-56 29 0 -299z"/>
<path d="M7140 4144 c0 -8 5 -12 10 -9 6 3 10 10 10 16 0 5 -4 9 -10 9 -5 0
-10 -7 -10 -16z"/>
<path d="M6370 4108 c-21 -19 -30 -33 -23 -35 14 -5 102 47 103 60 1 19 -49 4
-80 -25z"/>
<path d="M7126 4073 c-5 -24 -12 -40 -17 -37 -14 8 -23 -25 -11 -39 6 -7 16
-35 23 -62 12 -48 13 -49 19 -20 3 17 3 68 0 115 -6 79 -7 82 -14 43z"/>
<path d="M5506 4068 c-11 -6 -45 -8 -80 -5 -40 4 -69 2 -83 -6 l-23 -13 31
-33 30 -33 23 21 c31 29 111 30 119 1 5 -21 27 -28 27 -9 0 5 4 8 9 5 10 -7
21 39 12 51 -15 20 -48 31 -65 21z"/>
<path d="M6542 4060 c5 -23 35 -24 41 -1 4 17 1 20 -19 19 -16 -2 -24 -8 -22
-18z"/>
<path d="M6980 4041 c0 -25 6 -27 13 -6 4 8 2 17 -3 20 -6 4 -10 -3 -10 -14z"/>
<path d="M6326 4026 c3 -9 11 -16 16 -16 13 0 5 23 -10 28 -7 2 -10 -2 -6 -12z"/>
<path d="M1830 4003 c-19 -14 -48 -38 -65 -53 -16 -15 -50 -32 -75 -39 -61
-18 -100 -39 -100 -55 0 -15 33 -45 75 -68 33 -18 58 -11 83 23 6 10 27 22 45
28 28 10 41 8 80 -9 36 -16 51 -18 66 -10 11 5 29 10 41 10 27 0 21 27 -21 88
-16 23 -29 46 -29 50 0 10 -49 62 -58 62 -4 0 -23 -12 -42 -27z"/>
<path d="M3460 4000 c-24 -13 -56 -19 -105 -20 l-70 -1 -32 -44 c-36 -48 -35
-72 3 -80 13 -3 35 -7 48 -10 14 -3 39 -17 56 -32 26 -21 33 -24 41 -12 5 8 9
23 9 34 0 11 7 28 15 39 12 16 22 18 62 12 26 -4 65 -7 85 -7 21 1 49 -6 62
-14 39 -26 104 -10 147 36 40 43 65 48 101 20 16 -13 29 -17 39 -11 8 5 31 7
51 3 63 -10 183 61 136 80 -7 3 -4 6 7 6 17 1 17 3 5 11 -23 14 -79 3 -119
-23 -55 -37 -73 -39 -116 -17 -53 27 -95 33 -129 20 -23 -8 -34 -7 -55 7 -27
18 -71 18 -82 1 -3 -5 -10 -10 -15 -10 -5 -1 -19 -7 -31 -15 -26 -17 -41 -11
-53 23 -11 29 -15 29 -60 4z"/>
<path d="M2790 3960 c-142 -9 -152 -21 -55 -64 36 -15 65 -32 65 -37 0 -4 17
-11 38 -15 20 -4 59 -15 85 -25 64 -25 76 -24 120 12 33 28 36 33 24 48 -7 9
-19 30 -26 48 -18 46 -38 48 -251 33z"/>
<path d="M6338 3928 l-4 -33 -11 25 c-9 18 -12 20 -12 8 -1 -10 -8 -18 -16
-18 -8 0 -15 -4 -15 -10 0 -5 -7 -10 -15 -10 -23 0 -22 -162 2 -181 15 -13 15
-12 4 9 -6 12 -8 22 -3 22 13 0 33 -49 26 -63 -3 -7 2 -3 10 7 13 16 16 17 16
4 0 -14 6 -14 40 -6 37 10 40 13 46 55 11 74 -17 208 -39 186 -4 -3 -7 3 -7
15 0 34 -18 26 -22 -10z"/>
<path d="M6980 3896 c0 -41 9 -49 33 -31 18 13 18 15 2 39 -23 35 -35 33 -35
-8z"/>
<path d="M2274 3874 c-31 -37 -35 -47 -23 -55 8 -4 21 -7 29 -5 63 17 152 24
206 16 64 -10 76 4 35 39 -26 21 -52 31 -110 40 -102 15 -95 17 -137 -35z"/>
<path d="M7634 3893 c10 -10 46 -11 46 -1 0 4 -12 8 -27 8 -14 0 -23 -3 -19
-7z"/>
<path d="M7745 3876 c-16 -11 -16 -15 -4 -28 15 -17 49 -12 49 7 0 24 -25 36
-45 21z"/>
<path d="M1075 3839 c-27 -18 -41 -20 -138 -15 l-108 6 3 -22 c3 -21 8 -23 63
-23 54 0 139 -23 211 -57 11 -5 36 -8 55 -6 32 3 34 5 37 45 3 40 1 44 -37 68
-48 29 -47 29 -86 4z"/>
<path d="M6210 3796 c0 -2 8 -10 18 -17 15 -13 16 -12 3 4 -13 16 -21 21 -21
13z"/>
<path d="M6210 3766 c0 -2 8 -10 18 -17 15 -13 16 -12 3 4 -13 16 -21 21 -21
13z"/>
<path d="M7825 3591 c-46 -6 -48 -7 -21 -14 32 -9 86 0 86 14 0 5 -3 8 -7 7
-5 0 -30 -4 -58 -7z"/>
<path d="M5238 3289 c-10 -5 -18 -18 -18 -27 0 -10 -5 -23 -10 -28 -6 -6 -12
-28 -13 -50 l-2 -39 88 1 c52 0 93 6 99 12 12 12 0 17 -25 13 -5 -1 -6 3 -2 9
3 5 1 10 -4 10 -6 0 -11 4 -11 9 0 5 -19 29 -42 54 -35 38 -46 44 -60 36z"/>
<path d="M4745 3180 c-6 -10 1 -14 19 -11 5 1 44 -5 88 -14 44 -9 82 -14 85
-12 3 3 -16 9 -41 12 -26 4 -49 11 -52 17 -3 5 -14 6 -24 3 -10 -3 -21 -1 -25
5 -8 13 -42 13 -50 0z"/>
<path d="M4826 2977 c3 -10 9 -15 12 -12 3 3 0 11 -7 18 -10 9 -11 8 -5 -6z"/>
<path d="M5415 2919 c-16 -12 -22 -18 -12 -15 10 3 30 6 44 6 15 0 23 5 21 12
-7 20 -22 19 -53 -3z"/>
<path d="M5990 2915 c0 -13 4 -14 20 -5 11 6 20 13 20 15 0 3 -9 5 -20 5 -11
0 -20 -7 -20 -15z"/>
<path d="M5990 2883 c-25 -9 -53 -19 -62 -24 -23 -12 -31 -11 -23 1 3 6 2 10
-4 10 -5 0 -12 -4 -16 -10 -3 -5 -11 -7 -18 -4 -7 2 -19 -12 -29 -33 -16 -37
-15 -38 6 -45 11 -3 40 -6 63 -7 39 -1 44 -4 63 -41 11 -21 20 -55 20 -75 0
-49 -42 -128 -75 -143 -15 -7 -25 -15 -22 -18 9 -10 112 24 148 49 22 15 46
23 67 21 18 -1 32 2 32 7 0 6 -4 8 -9 4 -5 -3 -13 -1 -16 5 -5 8 -11 7 -21 -1
-8 -7 -14 -7 -14 -1 0 15 26 33 35 24 5 -4 5 -1 1 6 -5 7 11 41 38 84 25 39
46 76 46 81 0 15 -64 -4 -87 -26 l-23 -20 0 24 c0 30 -39 149 -48 148 -4 0
-27 -7 -52 -16z"/>
<path d="M5275 2860 c3 -5 13 -10 21 -10 8 0 14 5 14 10 0 6 -9 10 -21 10 -11
0 -17 -4 -14 -10z"/>
<path d="M5357 2853 c-15 -14 -6 -24 20 -21 34 4 43 28 11 28 -14 0 -28 -3
-31 -7z"/>
<path d="M6958 2823 c-32 -38 -30 -43 12 -28 59 21 67 27 44 36 -30 12 -40 10
-56 -8z"/>
<path d="M5610 2767 l-24 -30 48 6 c27 4 67 7 90 8 l41 1 -55 16 c-30 9 -59
20 -65 23 -5 4 -21 -7 -35 -24z"/>
<path d="M5720 2780 c8 -5 22 -10 30 -10 13 0 13 1 0 10 -8 5 -22 10 -30 10
-13 0 -13 -1 0 -10z"/>
<path d="M5520 2776 c0 -2 7 -6 15 -10 8 -3 15 -1 15 4 0 6 -7 10 -15 10 -8 0
-15 -2 -15 -4z"/>
<path d="M5436 2751 c-7 -10 -97 -34 -141 -37 -16 -1 -35 -2 -41 -3 -6 -1 -11
-12 -11 -24 0 -19 4 -23 21 -20 11 2 30 -2 40 -10 17 -13 18 -18 7 -44 -12
-29 -23 -37 -83 -62 -33 -12 -35 -29 -10 -74 10 -19 17 -53 17 -77 0 -39 -4
-46 -30 -60 -16 -8 -31 -18 -33 -21 -2 -4 -12 -5 -22 -2 -10 3 -33 -5 -49 -16
-23 -17 -39 -20 -64 -16 -34 7 -97 -17 -128 -48 -8 -7 -43 -28 -79 -47 -92
-47 -100 -52 -147 -84 -24 -16 -43 -33 -43 -38 0 -5 -4 -7 -9 -4 -5 3 -14 -1
-21 -9 -10 -12 -9 -15 4 -16 9 -1 22 -2 29 -3 6 -1 19 3 27 10 8 6 25 15 38
19 12 3 44 25 70 47 25 23 62 47 81 55 19 8 40 21 48 29 21 20 82 22 94 2 4
-7 14 -6 28 1 12 7 27 9 34 5 6 -4 9 -4 5 1 -4 4 7 16 25 26 17 9 31 23 29 31
-2 7 0 10 3 6 4 -4 16 -3 27 3 20 11 -119 -125 -168 -163 -15 -13 -36 -22 -45
-20 -25 4 -90 -33 -129 -73 -19 -20 -46 -42 -60 -49 -14 -7 -41 -22 -60 -32
-19 -11 -42 -19 -50 -18 -8 0 -21 2 -27 2 -7 1 -13 10 -13 21 0 10 -6 23 -13
29 -16 14 -47 -8 -48 -34 0 -10 -3 -14 -5 -7 -3 6 -1 28 4 47 9 30 8 34 -6 29
-10 -3 -21 -9 -27 -14 -5 -4 -37 -15 -70 -24 -33 -10 -102 -37 -153 -61 -51
-24 -97 -44 -102 -44 -6 0 -10 -4 -10 -10 0 -5 -8 -10 -19 -10 -10 0 -43 -13
-74 -30 -31 -16 -64 -30 -72 -30 -9 0 -18 -6 -21 -14 -6 -16 -41 -31 -92 -41
-23 -5 -36 -15 -43 -32 -5 -14 -14 -21 -20 -17 -25 15 12 -34 55 -74 58 -54
80 -54 188 1 46 24 129 56 184 71 54 16 114 35 133 42 19 8 36 12 38 10 7 -7
-19 -140 -33 -167 -7 -14 -24 -34 -38 -43 -15 -9 -26 -22 -26 -28 0 -6 -10
-25 -23 -42 -62 -83 -118 -212 -156 -360 -12 -44 -28 -87 -36 -96 -8 -9 -13
-19 -10 -22 3 -3 -12 -39 -34 -79 -21 -41 -49 -103 -62 -139 -12 -36 -26 -69
-30 -75 -4 -5 -10 -29 -14 -52 -6 -40 -5 -43 17 -43 54 1 116 24 163 60 28 22
68 46 88 55 37 15 39 15 125 -26 131 -61 213 -93 482 -186 135 -46 255 -90
267 -98 48 -32 113 -186 113 -270 0 -34 6 -47 38 -78 l38 -37 117 0 117 0 1
38 c0 20 2 51 4 67 6 39 -13 95 -31 95 -8 0 -14 5 -14 10 0 6 -7 10 -15 10 -8
0 -15 3 -15 6 0 4 92 99 204 213 207 209 256 262 328 358 l40 52 -21 27 c-12
15 -21 32 -21 39 0 7 -7 18 -15 25 -9 7 -15 29 -15 54 0 22 -7 61 -16 86 -11
31 -16 80 -16 158 0 102 -2 116 -24 148 -26 38 -43 99 -44 154 l0 35 -20 -32
c-24 -40 -83 -84 -164 -122 -146 -68 -250 -67 -486 4 -159 48 -463 162 -559
210 -49 24 -52 27 -35 39 11 7 30 17 44 21 40 12 130 69 130 82 0 6 8 14 18
17 9 3 28 26 41 51 35 66 67 85 146 88 36 1 65 6 65 11 0 5 7 3 15 -4 12 -10
15 -10 15 0 0 8 7 21 15 30 8 9 16 30 17 46 1 16 8 35 15 42 7 7 13 26 13 41
0 26 23 56 59 76 9 5 12 4 7 -3 -9 -14 -5 -15 28 -3 14 6 26 20 29 33 3 21 5
20 16 -9 7 -18 17 -33 22 -33 5 0 9 -9 9 -20 0 -11 4 -20 8 -20 5 0 18 9 30
20 12 11 23 20 25 20 2 0 19 -22 38 -50 35 -51 68 -77 54 -43 -11 30 -11 37 5
39 29 2 30 4 10 24 -11 11 -20 26 -20 34 0 8 -9 18 -21 21 -12 4 -30 16 -40
26 -19 19 -19 20 -2 44 10 13 20 25 23 25 3 0 20 -24 37 -53 17 -29 54 -77 82
-107 40 -43 53 -52 60 -41 5 8 7 20 4 28 -3 7 1 13 7 13 9 0 8 6 -3 18 -10 10
-17 24 -17 30 0 6 -9 14 -20 17 -33 10 -52 48 -45 88 4 22 3 37 -5 42 -6 4
-22 25 -36 47 -21 32 -28 37 -40 28 -11 -10 -14 -8 -15 11 0 13 -3 55 -5 93
-2 38 0 74 5 80 4 6 11 38 14 70 6 62 16 76 58 76 30 0 49 -17 49 -43 0 -10 5
-15 10 -12 6 4 9 23 8 44 l-3 37 -59 -4 c-40 -3 -56 -1 -52 7 4 6 5 11 2 11
-3 0 -7 -4 -10 -9z m-61 -193 c4 -13 10 -74 14 -135 6 -109 5 -113 -14 -107
-11 3 -28 15 -37 26 -19 21 -41 16 -31 -8 3 -8 -4 -26 -17 -39 -19 -20 -26
-22 -43 -13 -20 10 -20 11 5 24 24 12 26 19 30 109 5 93 7 98 39 131 39 40 44
41 54 12z m-145 -328 c8 -5 11 -10 5 -10 -5 0 -17 5 -25 10 -8 5 -10 10 -5 10
6 0 17 -5 25 -10z m130 -11 c0 -6 -4 -7 -10 -4 -5 3 -10 11 -10 16 0 6 5 7 10
4 6 -3 10 -11 10 -16z m-830 -317 c0 -11 -22 -32 -32 -32 -5 0 -4 9 2 20 11
20 30 28 30 12z"/>
<path d="M5686 2618 c-12 -27 -16 -69 -15 -150 0 -111 7 -152 25 -154 5 0 21
-6 36 -12 37 -15 58 -6 58 27 0 29 -33 57 -62 52 -11 -1 -19 5 -19 16 -5 59
-5 96 1 158 9 88 -2 115 -24 63z"/>
<path d="M6476 2629 c2 -4 -28 -10 -66 -13 -39 -4 -70 -11 -70 -15 0 -8 -75
-18 -157 -23 -18 -1 -33 -5 -33 -10 0 -11 97 -11 104 0 3 5 29 7 58 4 75 -6
234 14 260 33 22 15 15 20 -21 16 -7 -2 -10 2 -7 7 3 5 -11 9 -33 8 -22 0 -38
-4 -35 -7z"/>
<path d="M5536 2599 c-10 -17 -15 -40 -12 -52 3 -12 6 -69 7 -127 1 -103 2
-108 39 -170 31 -53 43 -65 66 -67 15 -1 32 -7 38 -13 31 -31 36 19 6 57 -11
14 -20 40 -20 57 0 23 -9 38 -35 60 -19 16 -35 36 -35 43 0 8 -4 11 -10 8 -13
-8 -13 38 1 84 9 30 7 47 -8 93 l-19 57 -18 -30z"/>
<path d="M5038 2571 c-8 -12 -18 -18 -23 -13 -5 4 -5 1 0 -7 6 -10 12 -9 28 8
12 11 18 23 15 26 -3 4 -12 -3 -20 -14z"/>
<path d="M4995 2520 c-3 -6 1 -7 9 -4 18 7 21 14 7 14 -6 0 -13 -4 -16 -10z"/>
<path d="M4957 2503 c-4 -3 -7 -16 -7 -27 0 -12 3 -16 8 -10 4 6 13 13 21 15
11 4 11 7 -1 17 -8 6 -18 9 -21 5z"/>
<path d="M5265 2110 c-3 -5 1 -10 10 -10 9 0 13 5 10 10 -3 6 -8 10 -10 10 -2
0 -7 -4 -10 -10z"/>
<path d="M3918 2033 c7 -3 16 -2 19 1 4 3 -2 6 -13 5 -11 0 -14 -3 -6 -6z"/>
<path d="M5393 1601 c-9 -15 -8 -23 4 -41 12 -17 13 -27 5 -46 -7 -15 -8 -25
-2 -29 21 -13 37 64 24 113 -8 27 -16 28 -31 3z"/>
<path d="M5968 433 c-25 -4 -28 -9 -30 -46 -3 -71 1 -110 18 -152 16 -40 20
-60 30 -165 3 -30 9 -58 13 -63 4 -4 101 -6 214 -5 l208 3 -31 33 c-16 18 -30
37 -30 43 0 5 -9 14 -20 21 -11 7 -20 18 -20 25 0 7 -4 13 -9 13 -5 0 -12 8
-16 19 -3 10 -17 31 -31 46 -14 15 -41 50 -60 78 -46 67 -100 117 -135 124
-15 3 -30 11 -33 19 -5 14 -15 15 -68 7z"/>
<path d="M3995 268 c3 -18 22 -86 42 -150 l37 -118 118 0 118 0 0 25 c0 30
-22 76 -45 95 -14 12 -18 12 -26 -1 -5 -8 -9 -9 -9 -4 0 6 -5 3 -10 -5 -9 -13
-12 -12 -25 4 -8 11 -25 21 -37 23 -25 4 -88 44 -88 56 0 12 -64 106 -73 106
-5 1 -6 -14 -2 -31z"/>
</g>
</svg>
